<?xml version="1.0" encoding="UTF-8"?><svg id="Calque_2" xmlns="http://www.w3.org/2000/svg" viewBox="0 0 732.38 651"><g id="Calque_1-2"><path d="M366.19,406.88c-24.41,0-28.48,1.36-35.26-5.43-6.78-6.78-5.43-10.85-5.43-33.91,0-24.41-1.36-28.48,5.43-36.62,6.78-6.78,10.85-5.43,35.26-5.43s28.48-1.36,35.26,5.43c6.78,8.14,5.43,12.21,5.43,36.62,0,23.06,1.36,27.13-5.43,33.91-6.78,6.78-10.85,5.43-35.26,5.43ZM406.88,203.44v81.38c0,24.41-1.36,28.48,5.43,35.26,8.14,6.78,10.85,5.43,35.26,5.43s28.48,1.36,35.26-5.43c6.78-6.78,5.43-10.85,5.43-35.26v-81.38c0-20.34,20.34-40.69,40.69-40.69s40.69,20.34,40.69,40.69v81.38c0,20.34-20.34,40.69-40.69,40.69-24.41,0-28.48-1.36-35.26,5.43-6.78,6.78-5.43,10.85-5.43,35.26,0,20.34-20.34,40.69-40.69,40.69-24.41,0-28.48-1.36-35.26,5.43-6.78,6.78-5.43,10.85-5.43,35.26,0,20.34-20.34,40.69-40.69,40.69s-40.69-20.34-40.69-40.69c0-24.41,1.36-28.48-5.43-35.26-6.78-6.78-10.85-5.43-35.26-5.43-20.34,0-40.69-20.34-40.69-40.69,0-24.41,1.36-28.48-5.43-35.26-6.78-6.78-10.85-5.43-35.26-5.43-20.34,0-40.69-20.34-40.69-40.69v-81.38c0-20.34,20.34-40.69,40.69-40.69s40.69,20.34,40.69,40.69v81.38c0,24.41-1.36,28.48,5.43,35.26s10.85,5.43,35.26,5.43,27.13,1.36,35.26-5.43c6.78-6.78,5.43-10.85,5.43-35.26v-81.38c0-24.41,1.36-28.48-5.43-35.26-6.78-6.78-10.85-5.43-35.26-5.43-20.34,0-40.69-20.34-40.69-40.69,0-24.41,1.36-28.48-5.43-35.26-6.78-6.78-10.85-5.43-35.26-5.43s-28.48-1.36-35.26,5.43c-6.78,6.78-5.43,10.85-5.43,35.26,0,20.34-20.34,40.69-40.69,40.69-24.41,0-28.48-1.36-35.26,5.43-6.78,6.78-5.43,10.85-5.43,35.26v81.38c0,24.41-1.36,28.48,5.43,35.26,6.78,6.78,10.85,5.43,35.26,5.43,20.34,0,40.69,20.34,40.69,40.69,0,24.41-1.36,28.48,5.43,35.26,6.78,6.78,10.85,5.43,35.26,5.43,20.34,0,40.69,20.34,40.69,40.69,0,24.41-1.36,28.48,5.43,35.26,6.78,6.78,10.85,5.43,35.26,5.43,20.34,0,40.69,20.34,40.69,40.69,0,24.41-1.36,28.48,5.43,35.26,6.78,6.78,10.85,5.43,35.26,5.43s28.48,1.36,35.26-5.43c6.78-6.78,5.43-10.85,5.43-35.26,0-20.34,20.34-40.69,40.69-40.69,24.41,0,28.48,1.36,35.26-5.43,6.78-6.78,5.43-10.85,5.43-35.26,0-20.34,20.34-40.69,40.69-40.69,24.41,0,28.48,1.36,35.26-5.43s5.43-10.85,5.43-35.26c0-20.34,20.34-40.69,40.69-40.69,24.41,0,28.48,1.36,35.26-5.43,6.78-6.78,5.43-10.85,5.43-35.26v-81.38c0-24.41,1.36-28.48-5.43-35.26-6.78-6.78-10.85-5.43-35.26-5.43-20.34,0-40.69-20.34-40.69-40.69,0-24.41,1.36-28.48-5.43-35.26-6.78-6.78-10.85-5.43-35.26-5.43s-28.48-1.36-35.26,5.43c-6.78,6.78-5.43,10.85-5.43,35.26,0,20.34-20.34,40.69-40.69,40.69-24.41,0-28.48-1.36-35.26,5.43-6.78,6.78-5.43,10.85-5.43,35.26ZM366.19,651c-20.34,0-40.69-20.34-40.69-40.69,0-24.41,1.36-28.48-5.43-35.26-6.78-6.78-10.85-5.43-35.26-5.43-20.34,0-40.69-20.34-40.69-40.69,0-24.41,1.36-28.48-5.43-35.26-6.78-6.78-10.85-5.43-35.26-5.43-20.34,0-40.69-20.34-40.69-40.69,0-24.41,1.36-28.48-5.43-35.26-6.78-6.78-10.85-5.43-35.26-5.43-20.34,0-40.69-20.34-40.69-40.69,0-24.41,1.36-28.48-5.43-35.26-6.78-6.78-10.85-5.43-35.26-5.43-20.34,0-40.69-20.34-40.69-40.69v-81.38c0-20.34,20.34-40.69,40.69-40.69,24.41,0,28.48,1.36,35.26-5.43,6.78-6.78,5.43-10.85,5.43-35.26,0-20.34,20.34-40.69,40.69-40.69,24.41,0,28.48,1.36,35.26-5.43,6.78-6.78,5.43-10.85,5.43-35.26,0-20.34,20.34-40.69,40.69-40.69s40.69,20.34,40.69,40.69c0,24.41-1.36,28.48,5.43,35.26,6.78,6.78,10.85,5.43,35.26,5.43,20.34,0,40.69,20.34,40.69,40.69,0,24.41-1.36,28.48,5.43,35.26s10.85,5.43,35.26,5.43,28.48,1.36,35.26-5.43c6.78-6.78,5.43-10.85,5.43-35.26,0-20.34,20.34-40.69,40.69-40.69,24.41,0,28.48,1.36,35.26-5.43,6.78-6.78,5.43-10.85,5.43-35.26,0-20.34,20.34-40.69,40.69-40.69s40.69,20.34,40.69,40.69c0,24.41-1.36,28.48,5.43,35.26s10.85,5.43,35.26,5.43c20.34,0,40.69,20.34,40.69,40.69,0,24.41-1.36,28.48,5.43,35.26,6.78,6.78,10.85,5.43,35.26,5.43,20.34,0,40.69,20.34,40.69,40.69v81.38c0,20.34-20.34,40.69-40.69,40.69-24.41,0-28.48-1.36-35.26,5.43-6.78,6.78-5.43,10.85-5.43,35.26,0,20.34-20.34,40.69-40.69,40.69-24.41,0-28.48-1.36-35.26,5.43-6.78,6.78-5.43,10.85-5.43,35.26,0,20.34-20.34,40.69-40.69,40.69-24.41,0-28.48-1.36-35.26,5.43-6.78,6.78-5.43,10.85-5.43,35.26,0,20.34-20.34,40.69-40.69,40.69-24.41,0-28.48-1.36-35.26,5.43-6.78,6.78-5.43,10.85-5.43,35.26,0,20.34-20.34,40.69-40.69,40.69Z"/></g></svg>